<svg width="24" height="24" viewBox="0 0 24 24" fill="none" xmlns="http://www.w3.org/2000/svg">
<path d="M18 4H6C5.46957 4 4.96086 4.21071 4.58579 4.58579C4.21071 4.96086 4 5.46957 4 6V18C4 18.5304 4.21071 19.0391 4.58579 19.4142C4.96086 19.7893 5.46957 20 6 20H18C18.5304 20 19.0391 19.7893 19.4142 19.4142C19.7893 19.0391 20 18.5304 20 18V6C20 5.46957 19.7893 4.96086 19.4142 4.58579C19.0391 4.21071 18.5304 4 18 4Z" stroke="#485388" stroke-width="1.5" stroke-linecap="round" stroke-linejoin="round"/>
<path d="M8 11V16" stroke="#485388" stroke-width="1.5" stroke-linecap="round" stroke-linejoin="round"/>
<path d="M8 8V8.01" stroke="#485388" stroke-width="1.5" stroke-linecap="round" stroke-linejoin="round"/>
<path d="M12 16V11" stroke="#485388" stroke-width="1.5" stroke-linecap="round" stroke-linejoin="round"/>
<path d="M16 16V13C16 12.4696 15.7893 11.9609 15.4142 11.5858C15.0391 11.2107 14.5304 11 14 11C13.4696 11 12.9609 11.2107 12.5858 11.5858C12.2107 11.9609 12 12.4696 12 13" stroke="#485388" stroke-width="1.5" stroke-linecap="round" stroke-linejoin="round"/>
</svg>
