<svg width="36" height="37" viewBox="0 0 36 37" fill="none" xmlns="http://www.w3.org/2000/svg">
<path d="M14.3652 17.9763L28.6279 3.71365C37.7601 10.3832 39.094 24.4407 28.7305 32.3416L14.3652 17.9763Z" fill="white"/>
<path d="M25.711 34.4369C22.9626 35.7225 19.9345 36.2949 16.9064 36.1012C13.8782 35.9075 10.9478 34.954 8.3855 33.3286C5.82324 31.7032 3.71183 29.4585 2.24625 26.8016C0.780662 24.1447 0.00815538 21.1613 6.42207e-05 18.1271C-0.00802693 15.0928 0.748558 12.1053 2.19995 9.44068C3.65134 6.77601 5.75075 4.52 8.3043 2.88099C10.8579 1.24198 13.7832 0.272799 16.8103 0.0629559C19.8373 -0.146887 22.8684 0.40937 25.6237 1.68036L21.8557 5.15016C19.8035 4.63712 19.3632 4.71217 17.1432 4.86606C14.9232 5.01996 12.7778 5.73075 10.905 6.9328C9.03222 8.13485 7.49252 9.7894 6.42807 11.7437C5.36363 13.6979 4.80875 15.8889 4.81468 18.1142C4.82062 20.3396 5.38717 22.5275 6.46202 24.4761C7.53688 26.4246 9.08538 28.0709 10.9645 29.263C12.8437 30.455 14.9929 31.1544 17.2137 31.2964C19.4345 31.4385 21.6553 31.0187 23.671 30.0758L25.711 34.4369Z" fill="white"/>
<circle cx="18.0592" cy="18.0789" r="9.85046" fill="white"/>
<path d="M15.8809 21.9745V19.981H17.8276C18.2654 19.981 18.6445 19.9028 18.9651 19.7465C19.2856 19.5823 19.5319 19.336 19.7039 19.0077C19.8758 18.6793 19.9618 18.2728 19.9618 17.7881C19.9618 17.3034 19.8719 16.9008 19.6921 16.5802C19.5201 16.2597 19.2739 16.0213 18.9533 15.8649C18.6406 15.7007 18.2654 15.6187 17.8276 15.6187H15.7637V13.6251H17.8276C18.4843 13.6251 19.0862 13.7228 19.6335 13.9183C20.1886 14.1137 20.6694 14.3952 21.0759 14.7626C21.4824 15.13 21.7951 15.5717 22.014 16.0877C22.2407 16.5959 22.3541 17.1666 22.3541 17.7998C22.3541 18.4331 22.2407 19.0077 22.014 19.5237C21.7951 20.0318 21.4824 20.4696 21.0759 20.8371C20.6694 21.2045 20.1925 21.4859 19.6452 21.6814C19.098 21.8768 18.4999 21.9745 17.851 21.9745H15.8809ZM14.3096 21.9745V13.6251H16.6549V21.9745H14.3096Z" fill="#05ABEC"/>
</svg>
