<svg width="144" height="144" viewBox="0 0 144 144" fill="none" xmlns="http://www.w3.org/2000/svg">
<rect x="7" y="7" width="130" height="130" rx="65" fill="#CDCED2"/>
<path d="M75.3671 25.8833C74.7098 25.8137 74.1544 25.6479 73.7008 25.386C73.2556 25.1173 72.8597 24.743 72.5133 24.2632L73.7904 23.2411C74.0161 23.5629 74.275 23.8233 74.5671 24.0223C74.8677 24.2146 75.2257 24.3327 75.6412 24.3767C76.019 24.4167 76.317 24.3795 76.5354 24.2651C76.7614 24.1516 76.8871 23.9739 76.9127 23.7321C76.9359 23.513 76.8867 23.3283 76.7651 23.1779C76.6436 23.0275 76.4746 22.8912 76.2584 22.769C76.0497 22.6475 75.8141 22.5271 75.5518 22.4076C75.2969 22.289 75.0433 22.159 74.7909 22.0177C74.5392 21.8688 74.3093 21.6955 74.1011 21.4977C73.9012 21.2932 73.7472 21.0515 73.6392 20.7727C73.532 20.4863 73.5 20.1391 73.5432 19.7311C73.5952 19.24 73.7571 18.8294 74.0289 18.4991C74.3083 18.1696 74.6691 17.9366 75.1114 17.8001C75.5545 17.656 76.0518 17.6131 76.6033 17.6715C77.1624 17.7307 77.662 17.883 78.102 18.1282C78.5497 18.3742 78.9066 18.6832 79.1728 19.0552L77.8956 20.0774C77.6803 19.8025 77.4543 19.5914 77.2178 19.4441C76.9888 19.2976 76.7195 19.208 76.4097 19.1752C76.1 19.1424 75.848 19.1768 75.6539 19.2785C75.4606 19.3726 75.3523 19.5292 75.3291 19.7483C75.3075 19.9523 75.3579 20.1257 75.4803 20.2686C75.6035 20.4039 75.7698 20.5284 75.9793 20.6423C76.1964 20.757 76.4323 20.8736 76.6872 20.9923C76.9495 21.1117 77.2066 21.2459 77.4582 21.3948C77.7098 21.5437 77.9352 21.7242 78.1343 21.9362C78.3417 22.1416 78.4982 22.395 78.6038 22.6965C78.7102 22.9904 78.7414 23.3451 78.6974 23.7607C78.6166 24.5237 78.281 25.0956 77.6907 25.4761C77.1011 25.8492 76.3266 25.9849 75.3671 25.8833Z" fill="#1E2D70"/>
<path d="M82.7138 26.7153L85.2607 19.0835L86.9579 19.6497L84.4111 27.2815L82.7138 26.7153ZM84.0111 27.1481L84.5017 25.6779L88.6853 27.0735L88.1947 28.5437L84.0111 27.1481ZM85.0753 23.9592L85.5478 22.543L89.3531 23.8124L88.8805 25.2285L85.0753 23.9592ZM86.0709 20.9756L86.5579 19.5162L90.6875 20.8938L90.2005 22.3532L86.0709 20.9756Z" fill="#1E2D70"/>
<path d="M92.3925 30.0994L96.655 23.2758L97.7183 23.9398L97.3213 25.5863L93.9101 31.0471L92.3925 30.0994ZM97.0999 33.039L96.2968 25.3764L97.7183 23.9398L98.5214 31.6023L97.0999 33.039ZM97.0999 33.039L97.5452 31.4227L100.956 25.9619L102.474 26.9095L98.2115 33.7332L97.0999 33.039Z" fill="#1E2D70"/>
<path d="M102.988 37.3407L104.129 36.2582L105.502 37.7047C105.837 38.0574 106.198 38.3006 106.587 38.4344C106.982 38.5629 107.382 38.5707 107.788 38.4578C108.194 38.3448 108.582 38.1131 108.951 37.7628C109.32 37.4124 109.566 37.0374 109.69 36.6376C109.818 36.2433 109.829 35.8459 109.721 35.4455C109.618 35.0505 109.4 34.6767 109.065 34.3241L107.653 32.8362L108.785 31.7616L110.213 33.266C110.632 33.7068 110.944 34.1798 111.152 34.685C111.369 35.1904 111.477 35.7064 111.474 36.2329C111.482 36.7597 111.377 37.2675 111.16 37.7562C110.954 38.2451 110.635 38.6935 110.206 39.1014C109.781 39.5041 109.317 39.7982 108.812 39.9838C108.313 40.1749 107.803 40.2556 107.282 40.2258C106.761 40.1961 106.252 40.0618 105.753 39.8231C105.259 39.5898 104.806 39.2555 104.392 38.8202L102.988 37.3407ZM102.157 36.4645L107.993 30.9268L109.225 32.2245L103.388 37.7622L102.157 36.4645Z" fill="#1E2D70"/>
<path d="M113.3 50.2354L120.815 47.3626L121.271 48.5547L117.794 53.2758L117.562 52.6691L123.298 53.8556L123.758 55.0584L116.243 57.9312L115.604 56.2601L120.298 54.4656L120.338 54.7921L116.599 54.013L116.176 52.906L118.445 49.8425L118.63 50.1014L113.935 51.896L113.3 50.2354Z" fill="#1E2D70"/>
<path d="M117.566 62.5993L125.558 61.6783L125.763 63.4557L117.77 64.3767L117.566 62.5993ZM117.722 63.9578L119.262 63.7804L119.767 68.1616L118.227 68.3391L117.722 63.9578ZM121.062 63.573L122.545 63.4021L123.004 67.3871L121.521 67.558L121.062 63.573ZM124.187 63.2129L125.715 63.0368L126.213 67.3614L124.685 67.5376L124.187 63.2129Z" fill="#1E2D70"/>
<path d="M118.137 75.0416C118.2 74.3836 118.361 73.8267 118.618 73.3706C118.883 72.9229 119.254 72.5236 119.73 72.1726L120.764 73.44C120.444 73.6687 120.186 73.9301 119.99 74.2241C119.801 74.5264 119.686 74.8855 119.646 75.3014C119.61 75.6796 119.65 75.9773 119.766 76.1946C119.882 76.4194 120.061 76.5435 120.303 76.5668C120.522 76.588 120.706 76.537 120.855 76.414C121.005 76.291 121.139 76.1208 121.259 75.9034C121.379 75.6936 121.497 75.4569 121.614 75.1934C121.73 74.9375 121.858 74.6826 121.997 74.4289C122.143 74.1759 122.315 73.9443 122.51 73.7342C122.713 73.5324 122.953 73.3761 123.231 73.2655C123.516 73.1556 123.863 73.1204 124.272 73.1597C124.763 73.2071 125.175 73.3651 125.508 73.6338C125.84 73.91 126.077 74.2686 126.217 74.7096C126.366 75.1513 126.413 75.6482 126.36 76.2002C126.306 76.7598 126.158 77.2608 125.917 77.7032C125.676 78.1531 125.37 78.5129 125.001 78.7826L123.966 77.5152C124.239 77.2972 124.448 77.0693 124.593 76.8314C124.738 76.6011 124.825 76.3309 124.855 76.0208C124.884 75.7108 124.848 75.4592 124.744 75.266C124.648 75.0736 124.491 74.9668 124.271 74.9457C124.067 74.926 123.894 74.978 123.752 75.1018C123.618 75.2262 123.495 75.3938 123.383 75.6043C123.271 75.8224 123.156 76.0595 123.04 76.3154C122.923 76.5789 122.791 76.8372 122.645 77.0902C122.498 77.3432 122.32 77.5703 122.11 77.7714C121.906 77.9807 121.655 78.1396 121.354 78.2481C121.061 78.3572 120.707 78.3918 120.291 78.3517C119.527 78.2781 118.952 77.9479 118.566 77.3612C118.187 76.7752 118.044 76.002 118.137 75.0416Z" fill="#1E2D70"/>
<path d="M116.542 84.438C116.739 83.8071 117.011 83.295 117.356 82.9016C117.707 82.5177 118.152 82.203 118.69 81.9573L119.442 83.4101C119.082 83.5682 118.776 83.7711 118.524 84.0185C118.276 84.2755 118.09 84.6034 117.965 85.0022C117.852 85.3648 117.83 85.6643 117.899 85.9009C117.966 86.1447 118.116 86.3029 118.348 86.3754C118.558 86.4411 118.749 86.4291 118.921 86.3394C119.092 86.2496 119.259 86.1107 119.421 85.9226C119.581 85.7418 119.745 85.5345 119.914 85.3006C120.08 85.074 120.257 84.8508 120.446 84.631C120.641 84.4134 120.856 84.222 121.091 84.0565C121.331 83.9006 121.598 83.7971 121.892 83.7458C122.194 83.6969 122.541 83.7336 122.932 83.856C123.404 84.0032 123.775 84.2425 124.045 84.5738C124.314 84.9123 124.471 85.3118 124.518 85.7723C124.573 86.235 124.517 86.7311 124.352 87.2604C124.184 87.797 123.937 88.257 123.61 88.6404C123.281 89.0311 122.908 89.3205 122.491 89.5086L121.739 88.0558C122.051 87.8986 122.302 87.7184 122.493 87.5154C122.682 87.3196 122.822 87.073 122.915 86.7757C123.008 86.4784 123.024 86.2246 122.962 86.0143C122.908 85.8063 122.776 85.6695 122.565 85.6037C122.369 85.5426 122.19 85.558 122.025 85.65C121.869 85.7443 121.714 85.8829 121.561 86.066C121.406 86.2564 121.245 86.4649 121.079 86.6915C120.91 86.9253 120.728 87.151 120.533 87.3686C120.338 87.5861 120.117 87.7717 119.869 87.9254C119.627 88.0885 119.348 88.1923 119.032 88.2367C118.723 88.2834 118.369 88.2444 117.97 88.1198C117.238 87.891 116.743 87.4498 116.485 86.7963C116.235 86.145 116.254 85.3589 116.542 84.438Z" fill="#1E2D70"/>
<path d="M114.694 90.7418L120.066 97.528L119.256 98.9293L110.71 97.6397L111.656 96.0015L118.648 97.2488L118.323 97.8113L113.765 92.3503L114.694 90.7418ZM115.051 93.0403L116.314 93.7697L114.12 97.5689L112.856 96.8395L115.051 93.0403Z" fill="#1E2D70"/>
<path d="M106.068 103.253C106.477 102.834 106.937 102.514 107.451 102.293C107.958 102.077 108.478 101.963 109.01 101.951C109.547 101.945 110.072 102.038 110.585 102.23C111.098 102.433 111.564 102.739 111.983 103.148C112.401 103.556 112.713 104.014 112.918 104.522C113.123 105.03 113.224 105.552 113.22 106.09C113.216 106.638 113.104 107.171 112.885 107.689C112.671 108.213 112.355 108.69 111.936 109.119C111.453 109.614 110.925 109.975 110.353 110.202C109.776 110.435 109.199 110.531 108.624 110.49L108.603 108.766C109.022 108.814 109.414 108.772 109.778 108.638C110.141 108.505 110.477 108.28 110.785 107.965C111.114 107.628 111.332 107.252 111.44 106.837C111.553 106.427 111.548 106.014 111.425 105.596C111.301 105.189 111.06 104.811 110.701 104.461C110.342 104.111 109.955 103.876 109.54 103.758C109.125 103.64 108.716 103.634 108.315 103.741C107.913 103.848 107.55 104.067 107.227 104.399C106.898 104.736 106.682 105.083 106.579 105.439C106.476 105.805 106.483 106.168 106.6 106.526C106.718 106.895 106.95 107.25 107.299 107.589L105.9 107.88L108.448 105.351L109.533 106.409L106.58 109.435L106.392 109.252C105.702 108.579 105.242 107.886 105.013 107.174C104.784 106.473 104.764 105.786 104.955 105.112C105.14 104.444 105.511 103.824 106.068 103.253Z" fill="#1E2D70"/>
<path d="M99.9395 109.201L104.183 116.036L102.662 116.98L98.4193 110.144L99.9395 109.201ZM98.7776 109.922L99.5949 111.238L95.8475 113.564L95.0301 112.247L98.7776 109.922ZM100.551 112.778L101.338 114.046L97.9293 116.161L97.142 114.893L100.551 112.778ZM102.209 115.45L103.021 116.757L99.3216 119.053L98.5103 117.745L102.209 115.45Z" fill="#1E2D70"/>
<path d="M85.2863 119.366C85.5517 119.3 85.8023 119.301 86.0381 119.367C86.2664 119.436 86.4652 119.559 86.6345 119.736C86.7963 119.915 86.9084 120.13 86.9706 120.381C87.031 120.624 87.0315 120.862 86.9722 121.096C86.9054 121.332 86.7872 121.534 86.6174 121.701C86.442 121.878 86.2216 121.999 85.9562 122.065C85.6981 122.129 85.4539 122.123 85.2237 122.047C84.988 121.98 84.7892 121.857 84.6273 121.678C84.4581 121.501 84.3433 121.291 84.2829 121.047C84.2207 120.797 84.2229 120.554 84.2896 120.318C84.349 120.084 84.4673 119.882 84.6444 119.713C84.8142 119.546 85.0282 119.43 85.2863 119.366Z" fill="#1E2D70"/>
<path d="M70.6103 118.217C71.2699 118.258 71.832 118.4 72.2964 118.642C72.7527 118.891 73.1642 119.248 73.531 119.713L72.2989 120.789C72.0596 120.477 71.7897 120.228 71.4893 120.042C71.1808 119.862 70.8181 119.76 70.401 119.734C70.0219 119.71 69.7257 119.76 69.5124 119.883C69.2916 120.007 69.1735 120.19 69.1583 120.432C69.1445 120.652 69.2016 120.835 69.3296 120.98C69.4575 121.125 69.6321 121.254 69.8534 121.366C70.0671 121.479 70.3076 121.589 70.5749 121.697C70.8346 121.805 71.0935 121.924 71.3518 122.054C71.6096 122.192 71.8467 122.355 72.0633 122.544C72.2718 122.74 72.436 122.974 72.5558 123.248C72.6752 123.53 72.7221 123.875 72.6964 124.285C72.6655 124.778 72.5214 125.195 72.264 125.537C71.999 125.878 71.6485 126.126 71.2125 126.281C70.776 126.444 70.281 126.509 69.7275 126.474C69.1664 126.439 68.6608 126.308 68.2106 126.082C67.7528 125.855 67.383 125.562 67.101 125.202L68.3331 124.126C68.5601 124.391 68.7949 124.592 69.0375 124.729C69.2726 124.866 69.5455 124.944 69.8564 124.963C70.1673 124.983 70.4175 124.938 70.6071 124.828C70.7962 124.725 70.8976 124.564 70.9114 124.344C70.9242 124.14 70.8665 123.969 70.738 123.831C70.6092 123.701 70.4376 123.584 70.2234 123.479C70.0017 123.374 69.7609 123.267 69.5012 123.16C69.234 123.052 68.9715 122.929 68.7137 122.791C68.4559 122.653 68.223 122.482 68.015 122.279C67.7989 122.083 67.6316 121.836 67.5132 121.54C67.3943 121.25 67.3479 120.897 67.374 120.48C67.422 119.714 67.7328 119.129 68.3063 118.723C68.8793 118.325 69.6473 118.156 70.6103 118.217Z" fill="#1E2D70"/>
<path d="M63.2292 117.701L61.016 125.436L59.2958 124.944L61.509 117.209L63.2292 117.701ZM61.9144 117.325L61.488 118.815L57.2478 117.602L57.6741 116.112L61.9144 117.325ZM60.9896 120.557L60.5789 121.993L56.7222 120.889L57.1329 119.454L60.9896 120.557ZM60.1244 123.581L59.7012 125.06L55.5157 123.863L55.9389 122.384L60.1244 123.581Z" fill="#1E2D70"/>
<path d="M53.4082 114.739L49.4429 121.739L48.3521 121.121L48.6779 119.459L51.8513 113.857L53.4082 114.739ZM48.5788 112.004L49.7105 119.625L48.3521 121.121L47.2204 113.5L48.5788 112.004ZM48.5788 112.004L48.2034 113.638L45.03 119.24L43.4731 118.359L47.4384 111.358L48.5788 112.004Z" fill="#1E2D70"/>
<path d="M42.5134 107.96L41.4199 109.09L39.9864 107.704C39.6369 107.365 39.265 107.138 38.8708 107.021C38.4714 106.909 38.0712 106.919 37.6704 107.049C37.2695 107.179 36.8921 107.427 36.5382 107.793C36.1842 108.159 35.9542 108.544 35.8481 108.949C35.7365 109.348 35.7431 109.746 35.8678 110.141C35.9872 110.531 36.2216 110.895 36.5711 111.233L38.0455 112.659L36.9599 113.782L35.4691 112.34C35.0322 111.917 34.6995 111.458 34.471 110.962C34.2317 110.466 34.1023 109.955 34.0828 109.429C34.0526 108.903 34.1355 108.392 34.3314 107.894C34.5166 107.397 34.8152 106.935 35.2273 106.509C35.6341 106.089 36.0856 105.775 36.5819 105.568C37.0727 105.356 37.5788 105.253 38.1001 105.261C38.6215 105.268 39.1365 105.381 39.6452 105.598C40.1484 105.81 40.6157 106.124 41.0472 106.542L42.5134 107.96ZM43.3817 108.8L37.7872 114.582L36.5012 113.338L42.0957 107.556L43.3817 108.8Z" fill="#1E2D70"/>
<path d="M31.6542 95.5109L24.2698 98.7049L23.763 97.5336L27.0339 92.667L27.2918 93.2632L21.5093 92.325L20.9979 91.1432L28.3823 87.9491L29.0928 89.5912L24.4802 91.5863L24.4267 91.2618L28.1954 91.879L28.666 92.9668L26.531 96.1252L26.3356 95.8745L30.9483 93.8793L31.6542 95.5109Z" fill="#1E2D70"/>
<path d="M26.8584 83.3401L18.9124 84.6021L18.6317 82.8351L26.5777 81.5731L26.8584 83.3401ZM26.6438 81.9895L25.1131 82.2326L24.4211 77.877L25.9518 77.6339L26.6438 81.9895ZM23.3236 82.5168L21.8492 82.751L21.2198 78.7893L22.6942 78.5551L23.3236 82.5168ZM20.2173 83.0102L18.6978 83.2515L18.0147 78.9522L19.5342 78.7109L20.2173 83.0102Z" fill="#1E2D70"/>
<path d="M25.7588 70.9558C25.7237 71.6159 25.5872 72.1792 25.3493 72.6459C25.1043 73.1046 24.7513 73.5194 24.2903 73.8906L23.2027 72.6687C23.5123 72.4265 23.7588 72.1543 23.9422 71.8521C24.1185 71.5419 24.2177 71.1782 24.2399 70.761C24.2601 70.3816 24.2073 70.0859 24.0817 69.8738C23.9564 69.6541 23.7724 69.5378 23.5296 69.5249C23.3096 69.5132 23.1277 69.572 22.9839 69.7013C22.84 69.8306 22.7128 70.0065 22.602 70.2288C22.4917 70.4436 22.3838 70.6851 22.2782 70.9534C22.173 71.2141 22.0565 71.4742 21.9286 71.7337C21.7931 71.9927 21.632 72.2314 21.4454 72.4498C21.2516 72.6601 21.0184 72.8265 20.7456 72.9489C20.4652 73.071 20.1202 73.1211 19.7105 73.0993C19.2173 73.0731 18.7987 72.9329 18.4547 72.6788C18.111 72.417 17.8595 72.0689 17.7 71.6344C17.5329 71.1995 17.4641 70.7051 17.4935 70.1513C17.5234 69.5898 17.6493 69.083 17.8711 68.6307C18.0934 68.1708 18.3833 67.7982 18.7408 67.5129L19.8285 68.7347C19.5652 68.9642 19.3662 69.2009 19.2315 69.4448C19.0972 69.6811 19.0218 69.9548 19.0053 70.2659C18.9887 70.5769 19.0363 70.8267 19.148 71.0152C19.2521 71.2034 19.4142 71.3033 19.6342 71.315C19.839 71.3259 20.0096 71.2664 20.1458 71.1367C20.2744 71.0066 20.3901 70.834 20.4929 70.6188C20.596 70.3961 20.7002 70.1543 20.8053 69.8937C20.9109 69.6254 21.0314 69.3617 21.1669 69.1026C21.3024 68.8435 21.4709 68.609 21.6723 68.3991C21.8664 68.1812 22.1113 68.0116 22.4069 67.8904C22.6948 67.7687 23.0474 67.719 23.4647 67.7412C24.231 67.7819 24.8196 68.0871 25.2305 68.6567C25.6339 69.226 25.81 69.9923 25.7588 70.9558Z" fill="#1E2D70"/>
<path d="M26.9467 61.4948C26.7771 62.1337 26.5281 62.6571 26.1997 63.0652C25.8659 63.464 25.4354 63.7978 24.9081 64.0666L24.0938 62.6479C24.4465 62.4742 24.7435 62.2583 24.985 62.0001C25.2211 61.7326 25.3927 61.3969 25.4999 60.9931C25.5974 60.6259 25.6063 60.3257 25.5268 60.0923C25.4492 59.8516 25.2929 59.7001 25.0579 59.6378C24.8449 59.5813 24.6548 59.6016 24.4875 59.6987C24.3203 59.7958 24.1597 59.9418 24.0058 60.1368C23.8538 60.3244 23.6986 60.5387 23.5404 60.7797C23.384 61.0133 23.2167 61.244 23.0383 61.4718C22.8526 61.6976 22.6461 61.8983 22.4187 62.0737C22.1859 62.2399 21.9235 62.355 21.6314 62.419C21.332 62.481 20.984 62.4594 20.5874 62.3542C20.1101 62.2276 19.7291 62.0047 19.4444 61.6854C19.1616 61.3589 18.9867 60.9666 18.9196 60.5086C18.8452 60.0487 18.8791 59.5507 19.0214 59.0147C19.1656 58.4713 19.3926 58.001 19.7025 57.6037C20.0142 57.1991 20.3743 56.8938 20.7827 56.6877L21.597 58.1064C21.2923 58.2771 21.0491 58.468 20.8673 58.6791C20.6874 58.883 20.5575 59.1354 20.4776 59.4365C20.3977 59.7375 20.3931 59.9918 20.4638 60.1992C20.5272 60.4046 20.6653 60.5356 20.8783 60.5921C21.0766 60.6447 21.2557 60.6215 21.4156 60.5224C21.5681 60.4214 21.7168 60.2762 21.8614 60.0866C22.008 59.8897 22.1595 59.6744 22.3158 59.4408C22.4741 59.1998 22.6461 58.9664 22.8318 58.7406C23.0175 58.5147 23.2304 58.3197 23.4705 58.1555C23.7052 57.9819 23.9796 57.8661 24.2938 57.808C24.6005 57.7479 24.9559 57.7714 25.3597 57.8786C26.1014 58.0754 26.615 58.4946 26.9006 59.1363C27.1788 59.7761 27.1942 60.5623 26.9467 61.4948Z" fill="#1E2D70"/>
<path d="M28.5201 55.1113L22.8609 48.5631L23.6091 47.1282L32.2031 48.048L31.3285 49.7254L24.2896 48.7809L24.5899 48.2049L29.379 53.4642L28.5201 55.1113ZM28.0644 52.8304L26.7709 52.1561L28.7994 48.2658L30.0929 48.94L28.0644 52.8304Z" fill="#1E2D70"/>
<path d="M36.6007 42.2398C36.2104 42.6756 35.7637 43.015 35.2606 43.258C34.7625 43.4953 34.2481 43.6313 33.7173 43.666C33.1808 43.6956 32.6523 43.6252 32.1317 43.4549C31.6106 43.2739 31.1321 42.9883 30.6962 42.5981C30.2603 42.2079 29.9291 41.7635 29.7025 41.265C29.4759 40.7664 29.3531 40.2486 29.3342 39.7117C29.3148 39.164 29.4035 38.6265 29.6003 38.0992C29.7916 37.5668 30.0874 37.077 30.4878 36.6299C30.949 36.1149 31.4605 35.7316 32.0224 35.48C32.5893 35.2227 33.1611 35.1024 33.7377 35.119L33.8328 36.8407C33.4114 36.8101 33.0219 36.8693 32.6642 37.0181C32.3065 37.167 31.9807 37.4056 31.6868 37.7338C31.3725 38.0847 31.1705 38.4698 31.0806 38.889C30.9851 39.3031 31.0079 39.7161 31.149 40.128C31.2895 40.5291 31.5466 40.8968 31.9202 41.2313C32.2938 41.5657 32.6905 41.7832 33.1104 41.8838C33.5303 41.9843 33.9386 41.9726 34.3353 41.8484C34.732 41.7243 35.0849 41.4896 35.3941 41.1444C35.7083 40.7935 35.9093 40.4381 35.9971 40.0782C36.0842 39.7075 36.0615 39.3457 35.929 38.9925C35.796 38.6287 35.5483 38.2846 35.186 37.9603L36.571 37.6094L34.1338 40.2456L33.0045 39.2347L35.825 36.0851L36.0203 36.2599C36.7392 36.9035 37.2283 37.5758 37.4876 38.277C37.7464 38.9675 37.795 39.6534 37.6335 40.3348C37.4771 41.0106 37.1328 41.6456 36.6007 42.2398Z" fill="#1E2D70"/>
<path d="M42.4731 36.0329L37.941 29.3853L39.4194 28.3777L43.9516 35.0253L42.4731 36.0329ZM43.6032 35.2627L42.7301 33.9822L46.3745 31.4984L47.2475 32.779L43.6032 35.2627ZM41.7094 32.485L40.8685 31.2516L44.1832 28.9924L45.0242 30.2259L41.7094 32.485ZM39.9376 29.8863L39.071 28.6151L42.6683 26.1635L43.5349 27.4346L39.9376 29.8863Z" fill="#1E2D70"/>
<path d="M56.6593 25.2515C56.397 25.3289 56.1466 25.3394 55.9082 25.2829C55.677 25.2244 55.4731 25.1103 55.2963 24.9406C55.1268 24.7688 55.0055 24.5591 54.9324 24.3113C54.8614 24.0709 54.8505 23.8325 54.8996 23.5962C54.956 23.3578 55.0654 23.1513 55.2277 22.9767C55.3952 22.7926 55.6101 22.6619 55.8725 22.5845C56.1275 22.5093 56.3717 22.5046 56.605 22.5705C56.8434 22.6269 57.0474 22.741 57.2169 22.9128C57.3937 23.0824 57.5176 23.2875 57.5885 23.5279C57.6616 23.7757 57.6699 24.0188 57.6135 24.2572C57.5644 24.4935 57.4551 24.7 57.2854 24.8768C57.1231 25.0514 56.9144 25.1763 56.6593 25.2515Z" fill="#1E2D70"/>
<circle cx="72" cy="72" r="36.7391" fill="#626C9B"/>
<path d="M68.2256 63.699C67.0959 63.0038 65.6413 63.8166 65.6413 65.1431V81.6828C65.6413 83.0094 67.0958 83.8222 68.2256 83.127L81.6642 74.8571C82.7401 74.195 82.7401 72.631 81.6642 71.9689L68.2256 63.699Z" fill="white"/>
</svg>
